<svg id="svg" version="1.1" xmlns="http://www.w3.org/2000/svg" xmlns:xlink="http://www.w3.org/1999/xlink" width="400" height="400" viewBox="0, 0, 400,400"><g id="svgg"><path id="path0" d="M53.054 114.029 C 50.860 115.754,51.723 118.268,55.200 120.281 C 57.179 121.427,66.805 127.077,76.200 132.607 C 80.600 135.197,84.740 137.627,85.400 138.007 C 86.738 138.777,91.838 141.763,97.000 144.800 C 98.870 145.900,101.930 147.700,103.800 148.800 C 105.670 149.900,108.685 151.674,110.500 152.742 C 112.315 153.810,115.420 155.638,117.400 156.803 C 119.380 157.968,121.466 159.163,122.035 159.458 C 124.597 160.785,124.414 157.374,124.302 201.818 L 124.200 242.169 122.587 243.252 C 121.700 243.848,119.405 245.250,117.487 246.368 C 115.569 247.485,112.470 249.300,110.600 250.400 C 108.730 251.500,105.715 253.271,103.900 254.336 C 102.085 255.401,97.450 258.124,93.600 260.388 C 89.750 262.652,86.060 264.817,85.400 265.200 C 84.740 265.583,81.050 267.748,77.200 270.012 C 67.979 275.434,64.796 277.299,58.800 280.795 C 51.575 285.006,50.365 286.724,52.926 289.130 C 54.673 290.772,53.779 291.204,77.600 277.196 C 81.450 274.932,86.130 272.180,88.000 271.081 C 89.870 269.981,93.470 267.881,96.000 266.413 C 98.530 264.945,101.833 262.992,103.341 262.072 C 104.848 261.152,106.157 260.400,106.249 260.400 C 106.342 260.400,107.088 259.972,107.909 259.450 C 108.729 258.927,111.650 257.188,114.400 255.586 C 117.150 253.983,120.660 251.917,122.200 250.995 C 123.740 250.073,125.556 249.033,126.235 248.683 C 127.697 247.930,126.800 247.543,135.800 252.800 C 137.780 253.956,139.961 255.223,140.647 255.615 C 141.332 256.006,143.106 257.063,144.588 257.963 C 146.069 258.863,147.335 259.600,147.400 259.600 C 147.465 259.600,148.731 260.337,150.212 261.237 C 151.694 262.137,153.468 263.194,154.153 263.585 C 155.323 264.252,160.133 267.076,176.000 276.412 C 179.630 278.547,185.660 282.091,189.400 284.287 C 193.140 286.483,196.830 288.666,197.600 289.139 C 200.107 290.676,197.431 292.045,235.000 270.006 C 239.620 267.296,244.660 264.325,246.200 263.404 C 249.116 261.659,255.337 258.014,263.700 253.150 C 266.395 251.583,269.305 249.850,270.167 249.300 C 272.275 247.955,272.941 248.032,276.153 249.993 C 277.668 250.917,279.468 251.994,280.153 252.385 C 280.839 252.777,283.020 254.044,285.000 255.200 C 286.980 256.356,289.158 257.621,289.840 258.011 C 290.523 258.401,292.413 259.520,294.040 260.499 C 296.682 262.087,299.842 263.946,303.400 266.003 C 305.507 267.222,311.397 270.678,321.700 276.742 C 323.515 277.810,326.620 279.636,328.600 280.800 C 330.580 281.964,333.730 283.816,335.600 284.916 C 345.484 290.733,345.129 290.600,346.946 289.171 C 348.342 288.073,348.419 285.723,347.100 284.517 C 346.605 284.064,341.520 280.947,335.800 277.591 C 330.080 274.234,322.340 269.690,318.600 267.492 C 314.860 265.294,311.260 263.186,310.600 262.808 C 309.940 262.429,307.538 261.013,305.263 259.660 C 302.987 258.307,301.071 257.200,301.004 257.200 C 300.937 257.200,299.648 256.448,298.141 255.529 C 295.757 254.076,291.354 251.484,287.400 249.206 C 282.529 246.399,276.883 242.976,276.298 242.474 C 275.636 241.907,275.602 239.567,275.698 201.448 L 275.800 161.024 278.000 159.534 C 279.210 158.714,280.322 158.034,280.471 158.022 C 280.619 158.010,282.208 157.100,284.000 156.000 C 285.792 154.900,287.339 154.000,287.438 154.000 C 287.537 154.000,288.288 153.573,289.109 153.051 C 290.426 152.212,297.723 147.883,301.000 145.994 C 301.660 145.614,303.820 144.356,305.800 143.200 C 307.780 142.044,309.958 140.779,310.640 140.389 C 311.323 139.999,313.213 138.880,314.840 137.901 C 316.468 136.923,318.970 135.438,320.400 134.603 C 325.349 131.713,339.015 123.712,342.600 121.607 C 348.389 118.207,349.592 116.110,346.946 114.029 C 345.308 112.740,344.619 112.959,338.000 116.863 C 328.937 122.210,325.538 124.206,320.400 127.195 C 317.870 128.667,313.280 131.366,310.200 133.192 C 307.120 135.018,304.060 136.824,303.400 137.205 C 302.740 137.586,300.580 138.844,298.600 140.000 C 296.620 141.156,294.370 142.459,293.600 142.894 C 292.830 143.329,292.020 143.827,291.800 144.000 C 291.580 144.173,290.770 144.671,290.000 145.106 C 289.230 145.541,286.980 146.844,285.000 148.000 C 283.020 149.156,280.839 150.423,280.153 150.815 C 279.468 151.206,277.668 152.283,276.153 153.207 C 272.680 155.327,272.490 155.319,268.471 152.847 C 266.639 151.721,265.061 150.800,264.962 150.800 C 264.863 150.800,264.112 150.372,263.291 149.850 C 262.471 149.327,259.550 147.587,256.800 145.983 C 254.050 144.379,250.360 142.218,248.600 141.181 C 239.723 135.948,223.855 126.637,214.400 121.113 C 208.570 117.706,203.170 114.533,202.400 114.061 C 200.630 112.976,199.369 112.976,197.600 114.061 C 196.830 114.534,193.184 116.691,189.497 118.856 C 185.811 121.020,179.691 124.618,175.897 126.851 C 172.104 129.083,165.310 133.073,160.800 135.717 C 152.701 140.464,149.446 142.375,142.800 146.284 C 133.094 151.994,129.741 153.944,128.435 154.639 C 127.340 155.221,127.035 155.102,122.200 152.202 C 120.660 151.278,118.230 149.837,116.800 149.000 C 115.370 148.163,112.670 146.582,110.800 145.488 C 108.930 144.393,106.860 143.186,106.200 142.806 C 105.540 142.426,103.020 140.945,100.600 139.516 C 98.180 138.086,93.950 135.600,91.200 133.990 C 88.450 132.381,83.860 129.682,81.000 127.993 C 78.140 126.304,73.550 123.606,70.800 121.997 C 68.050 120.388,64.540 118.323,63.000 117.408 C 55.153 112.744,54.828 112.634,53.054 114.029 M210.200 126.064 C 215.480 129.178,221.870 132.930,224.400 134.403 C 228.704 136.909,231.300 138.431,239.500 143.258 C 256.116 153.037,262.847 156.987,264.674 158.030 C 265.375 158.430,266.680 159.219,267.574 159.784 L 269.200 160.810 269.200 201.600 L 269.200 242.390 267.574 243.416 C 266.680 243.981,265.375 244.770,264.674 245.170 C 263.431 245.880,259.775 248.018,253.100 251.938 C 251.285 253.004,246.110 256.037,241.600 258.678 C 237.090 261.319,228.360 266.446,222.200 270.072 C 201.980 281.974,200.538 282.800,199.993 282.800 C 199.696 282.800,196.201 280.884,192.227 278.543 C 188.252 276.202,181.940 272.485,178.200 270.284 C 174.460 268.082,169.420 265.112,167.000 263.683 C 164.580 262.255,162.060 260.774,161.400 260.394 C 160.118 259.655,155.592 257.004,149.900 253.658 C 143.636 249.975,139.426 247.512,138.127 246.771 C 137.427 246.371,135.537 245.242,133.927 244.263 L 131.000 242.482 131.000 201.606 L 131.000 160.731 134.529 158.565 C 136.471 157.374,138.140 156.400,138.238 156.400 C 138.337 156.400,139.088 155.973,139.909 155.451 C 141.226 154.612,148.523 150.283,151.800 148.394 C 152.460 148.014,154.620 146.756,156.600 145.600 C 158.580 144.444,160.758 143.179,161.440 142.789 C 162.123 142.399,164.013 141.281,165.640 140.304 C 167.268 139.328,170.850 137.210,173.600 135.598 C 178.758 132.574,180.023 131.830,192.200 124.654 C 196.160 122.320,199.670 120.409,200.000 120.407 C 200.330 120.405,204.920 122.951,210.200 126.064 " stroke="none" fill="#fafbfc" fill-rule="evenodd"></path><path id="path1" d="M0.000 200.000 L 0.000 400.000 200.000 400.000 L 400.000 400.000 400.000 200.000 L 400.000 0.000 200.000 0.000 L 0.000 0.000 0.000 200.000 M57.951 114.472 C 59.188 115.171,61.460 116.492,63.000 117.408 C 64.540 118.323,68.050 120.388,70.800 121.997 C 73.550 123.606,78.140 126.304,81.000 127.993 C 83.860 129.682,88.450 132.381,91.200 133.990 C 93.950 135.600,98.180 138.086,100.600 139.516 C 103.020 140.945,105.540 142.426,106.200 142.806 C 106.860 143.186,108.930 144.393,110.800 145.488 C 112.670 146.582,115.370 148.163,116.800 149.000 C 118.230 149.837,120.660 151.278,122.200 152.202 C 127.035 155.102,127.340 155.221,128.435 154.639 C 129.741 153.944,133.094 151.994,142.800 146.284 C 149.446 142.375,152.701 140.464,160.800 135.717 C 165.310 133.073,172.104 129.083,175.897 126.851 C 179.691 124.618,185.811 121.020,189.497 118.856 C 193.184 116.691,196.830 114.534,197.600 114.061 C 199.369 112.976,200.630 112.976,202.400 114.061 C 203.170 114.533,208.570 117.706,214.400 121.113 C 223.855 126.637,239.723 135.948,248.600 141.181 C 250.360 142.218,254.050 144.379,256.800 145.983 C 259.550 147.587,262.471 149.327,263.291 149.850 C 264.112 150.372,264.863 150.800,264.962 150.800 C 265.061 150.800,266.639 151.721,268.471 152.847 C 272.490 155.319,272.680 155.327,276.153 153.207 C 277.668 152.283,279.468 151.206,280.153 150.815 C 280.839 150.423,283.020 149.156,285.000 148.000 C 286.980 146.844,289.230 145.541,290.000 145.106 C 290.770 144.671,291.580 144.173,291.800 144.000 C 292.020 143.827,292.830 143.329,293.600 142.894 C 294.370 142.459,296.620 141.156,298.600 140.000 C 300.580 138.844,302.740 137.586,303.400 137.205 C 304.060 136.824,307.120 135.018,310.200 133.192 C 313.280 131.366,317.870 128.667,320.400 127.195 C 325.538 124.206,328.937 122.210,338.000 116.863 C 344.619 112.959,345.308 112.740,346.946 114.029 C 349.592 116.110,348.389 118.207,342.600 121.607 C 339.015 123.712,325.349 131.713,320.400 134.603 C 318.970 135.438,316.468 136.923,314.840 137.901 C 313.213 138.880,311.323 139.999,310.640 140.389 C 309.958 140.779,307.780 142.044,305.800 143.200 C 303.820 144.356,301.660 145.614,301.000 145.994 C 297.723 147.883,290.426 152.212,289.109 153.051 C 288.288 153.573,287.537 154.000,287.438 154.000 C 287.339 154.000,285.792 154.900,284.000 156.000 C 282.208 157.100,280.619 158.010,280.471 158.022 C 280.322 158.034,279.210 158.714,278.000 159.534 L 275.800 161.024 275.698 201.448 C 275.602 239.567,275.636 241.907,276.298 242.474 C 276.883 242.976,282.529 246.399,287.400 249.206 C 291.354 251.484,295.757 254.076,298.141 255.529 C 299.648 256.448,300.937 257.200,301.004 257.200 C 301.071 257.200,302.987 258.307,305.263 259.660 C 307.538 261.013,309.940 262.429,310.600 262.808 C 311.260 263.186,314.860 265.294,318.600 267.492 C 322.340 269.690,330.080 274.234,335.800 277.591 C 341.520 280.947,346.605 284.064,347.100 284.517 C 348.419 285.723,348.342 288.073,346.946 289.171 C 345.129 290.600,345.484 290.733,335.600 284.916 C 333.730 283.816,330.580 281.964,328.600 280.800 C 326.620 279.636,323.515 277.810,321.700 276.742 C 311.397 270.678,305.507 267.222,303.400 266.003 C 299.842 263.946,296.682 262.087,294.040 260.499 C 292.413 259.520,290.523 258.401,289.840 258.011 C 289.158 257.621,286.980 256.356,285.000 255.200 C 283.020 254.044,280.839 252.777,280.153 252.385 C 279.468 251.994,277.668 250.917,276.153 249.993 C 272.941 248.032,272.275 247.955,270.167 249.300 C 269.305 249.850,266.395 251.583,263.700 253.150 C 255.337 258.014,249.116 261.659,246.200 263.404 C 244.660 264.325,239.620 267.296,235.000 270.006 C 197.431 292.045,200.107 290.676,197.600 289.139 C 196.830 288.666,193.140 286.483,189.400 284.287 C 185.660 282.091,179.630 278.547,176.000 276.412 C 160.133 267.076,155.323 264.252,154.153 263.585 C 153.468 263.194,151.694 262.137,150.212 261.237 C 148.731 260.337,147.465 259.600,147.400 259.600 C 147.335 259.600,146.069 258.863,144.588 257.963 C 143.106 257.063,141.332 256.006,140.647 255.615 C 139.961 255.223,137.780 253.956,135.800 252.800 C 126.800 247.543,127.697 247.930,126.235 248.683 C 125.556 249.033,123.740 250.073,122.200 250.995 C 120.660 251.917,117.150 253.983,114.400 255.586 C 111.650 257.188,108.729 258.927,107.909 259.450 C 107.088 259.972,106.342 260.400,106.249 260.400 C 106.157 260.400,104.848 261.152,103.341 262.072 C 101.833 262.992,98.530 264.945,96.000 266.413 C 93.470 267.881,89.870 269.981,88.000 271.081 C 86.130 272.180,81.450 274.932,77.600 277.196 C 53.779 291.204,54.673 290.772,52.926 289.130 C 50.365 286.724,51.575 285.006,58.800 280.795 C 64.796 277.299,67.979 275.434,77.200 270.012 C 81.050 267.748,84.740 265.583,85.400 265.200 C 86.060 264.817,89.750 262.652,93.600 260.388 C 97.450 258.124,102.085 255.401,103.900 254.336 C 105.715 253.271,108.730 251.500,110.600 250.400 C 112.470 249.300,115.569 247.485,117.487 246.368 C 119.405 245.250,121.700 243.848,122.587 243.252 L 124.200 242.169 124.302 201.818 C 124.414 157.374,124.597 160.785,122.035 159.458 C 121.466 159.163,119.380 157.968,117.400 156.803 C 115.420 155.638,112.315 153.810,110.500 152.742 C 108.685 151.674,105.670 149.900,103.800 148.800 C 101.930 147.700,98.870 145.900,97.000 144.800 C 91.838 141.763,86.738 138.777,85.400 138.007 C 84.740 137.627,80.600 135.197,76.200 132.607 C 66.805 127.077,57.179 121.427,55.200 120.281 C 51.723 118.268,50.860 115.754,53.054 114.029 C 54.482 112.906,55.316 112.981,57.951 114.472 M192.200 124.654 C 180.023 131.830,178.758 132.574,173.600 135.598 C 170.850 137.210,167.268 139.328,165.640 140.304 C 164.013 141.281,162.123 142.399,161.440 142.789 C 160.758 143.179,158.580 144.444,156.600 145.600 C 154.620 146.756,152.460 148.014,151.800 148.394 C 148.523 150.283,141.226 154.612,139.909 155.451 C 139.088 155.973,138.337 156.400,138.238 156.400 C 138.140 156.400,136.471 157.374,134.529 158.565 L 131.000 160.731 131.000 201.606 L 131.000 242.482 133.927 244.263 C 135.537 245.242,137.427 246.371,138.127 246.771 C 139.426 247.512,143.636 249.975,149.900 253.658 C 155.592 257.004,160.118 259.655,161.400 260.394 C 162.060 260.774,164.580 262.255,167.000 263.683 C 169.420 265.112,174.460 268.082,178.200 270.284 C 181.940 272.485,188.252 276.202,192.227 278.543 C 196.201 280.884,199.696 282.800,199.993 282.800 C 200.538 282.800,201.980 281.974,222.200 270.072 C 228.360 266.446,237.090 261.319,241.600 258.678 C 246.110 256.037,251.285 253.004,253.100 251.938 C 259.775 248.018,263.431 245.880,264.674 245.170 C 265.375 244.770,266.680 243.981,267.574 243.416 L 269.200 242.390 269.200 201.600 L 269.200 160.810 267.574 159.784 C 266.680 159.219,265.375 158.430,264.674 158.030 C 262.847 156.987,256.116 153.037,239.500 143.258 C 231.300 138.431,228.704 136.909,224.400 134.403 C 221.870 132.930,215.480 129.178,210.200 126.064 C 204.920 122.951,200.330 120.405,200.000 120.407 C 199.670 120.409,196.160 122.320,192.200 124.654 " stroke="none" fill="#28d4fc" fill-rule="evenodd"></path></g></svg>